<?xml version="1.0" encoding="utf-8"?>
<!-- Generator: Adobe Illustrator 24.2.1, SVG Export Plug-In . SVG Version: 6.00 Build 0)  -->
<svg version="1.1" id="Layer_1" xmlns="http://www.w3.org/2000/svg" xmlns:xlink="http://www.w3.org/1999/xlink" x="0px" y="0px"
	 viewBox="0 0 2500 2500" style="enable-background:new 0 0 2500 2500;" xml:space="preserve">
<style type="text/css">
	.st0{fill:#FFFFFF;}
	.st1{fill:url(#SVGID_1_);}
	.st2{fill:url(#SVGID_2_);}
	.st3{fill:url(#SVGID_3_);}
	.st4{fill:url(#SVGID_4_);}
	.st5{clip-path:url(#SVGID_6_);}
	.st6{fill:url(#SVGID_7_);}
	.st7{clip-path:url(#SVGID_9_);}
	.st8{fill:url(#SVGID_10_);}
	.st9{clip-path:url(#SVGID_12_);}
	.st10{fill:url(#SVGID_13_);}
	.st11{clip-path:url(#SVGID_15_);}
	.st12{fill:url(#SVGID_16_);}
	.st13{opacity:0.1;}
	.st14{clip-path:url(#SVGID_18_);}
	.st15{clip-path:url(#SVGID_20_);}
	.st16{clip-path:url(#SVGID_22_);}
	.st17{clip-path:url(#SVGID_24_);}
	.st18{fill:url(#SVGID_25_);}
	.st19{clip-path:url(#SVGID_27_);}
	.st20{fill:url(#SVGID_28_);}
	.st21{clip-path:url(#SVGID_30_);}
	.st22{clip-path:url(#SVGID_32_);}
	.st23{fill:url(#SVGID_33_);}
	.st24{fill:#3F51B5;}
</style>
<circle class="st0" cx="1250" cy="1260.7" r="1147"/>
<linearGradient id="SVGID_1_" gradientUnits="userSpaceOnUse" x1="0.1557" y1="2500.1626" x2="0.9564" y2="2500.1626" gradientTransform="matrix(0 551.5391 551.5391 0 -1378043.25 886.5253)">
	<stop  offset="0" style="stop-color:#3F51B5"/>
	<stop  offset="1" style="stop-color:#313A78"/>
</linearGradient>
<path class="st1" d="M859.2,986.4c-9.3,9.3-14,20.8-14,34.5c0,13.6,4.7,25.2,14,34.8c9.3,9.6,20.8,14.3,34.5,14.3
	c13.6,0,25.2-4.8,34.8-14.3c9.5-9.5,14.3-21.1,14.3-34.8c0-13.6-4.8-25.1-14.3-34.5c-9.5-9.3-21.1-14-34.8-14
	C880,972.4,868.5,977.1,859.2,986.4L859.2,986.4z M861.8,1100c-8.8,8.8-13.1,19.4-13.1,31.8v236.6c0,6.2,1.2,12.2,3.5,17.8
	c2.3,5.7,5.6,10.5,9.6,14.6c4.1,4.1,8.9,7.3,14.3,9.6c5.5,2.3,11.3,3.5,17.5,3.5c12.5,0,23.2-4.5,32.1-13.4
	c8.9-9,13.4-19.7,13.4-32.1v-236.6c0-6.2-1.2-12.1-3.5-17.5c-2.3-5.5-5.6-10.2-9.6-14.3c-4.1-4.1-9-7.3-14.6-9.6
	c-5.7-2.3-11.6-3.5-17.8-3.5C881.2,1086.9,870.6,1091.3,861.8,1100z"/>
<linearGradient id="SVGID_2_" gradientUnits="userSpaceOnUse" x1="0.1557" y1="2499.9553" x2="0.9564" y2="2499.9553" gradientTransform="matrix(0 551.5391 551.5391 0 -1377469.875 886.5253)">
	<stop  offset="0" style="stop-color:#3F51B5"/>
	<stop  offset="1" style="stop-color:#313A78"/>
</linearGradient>
<path class="st2" d="M1318.3,986.4c-9.4,9.3-14,20.8-14,34.5c0,13.6,4.7,25.2,14,34.8c9.3,9.6,20.8,14.3,34.5,14.3
	c13.6,0,25.2-4.8,34.8-14.3c9.5-9.5,14.3-21.1,14.3-34.8c0-13.6-4.8-25.1-14.3-34.5c-9.5-9.3-21.1-14-34.8-14
	C1339.2,972.4,1327.7,977.1,1318.3,986.4z M1321,1100c-8.8,8.8-13.1,19.4-13.1,31.8v236.6c0,6.2,1.2,12.2,3.5,17.8
	c2.3,5.7,5.5,10.5,9.6,14.6c4.1,4.1,8.9,7.3,14.3,9.6c5.4,2.3,11.3,3.5,17.5,3.5c12.5,0,23.2-4.5,32.1-13.4
	c8.9-9,13.4-19.7,13.4-32.1v-236.6c0-6.2-1.2-12.1-3.5-17.5c-2.3-5.5-5.6-10.2-9.6-14.3c-4.1-4.1-9-7.3-14.6-9.6
	c-5.7-2.3-11.6-3.5-17.8-3.5C1340.3,1086.9,1329.7,1091.3,1321,1100L1321,1100z"/>
<linearGradient id="SVGID_3_" gradientUnits="userSpaceOnUse" x1="3.773940e-02" y1="2500.1069" x2="0.8385" y2="2500.1069" gradientTransform="matrix(0 -548.4344 -548.4344 0 1372634.5 1421.3785)">
	<stop  offset="0" style="stop-color:#2196F3"/>
	<stop  offset="1" style="stop-color:#00C0F3"/>
</linearGradient>
<path class="st3" d="M1467.3,1304.5c-7,2.9-13,7-18.1,12.3c-5.1,5.3-9.1,11.3-12,18.1c-2.9,6.8-4.4,14.1-4.4,21.9
	c0,16,5.5,29.5,16.4,40.6c10.9,11.1,24.3,16.6,40.3,16.6c16,0,29.5-5.5,40.6-16.6c11.1-11.1,16.6-24.6,16.6-40.6
	c0-7.8-1.5-15.1-4.4-21.9c-2.9-6.8-7-12.8-12.3-18.1c-5.3-5.3-11.4-9.3-18.4-12.3c-7-2.9-14.4-4.4-22.2-4.4
	C1481.7,1300.1,1474.3,1301.6,1467.3,1304.5L1467.3,1304.5z"/>
<linearGradient id="SVGID_4_" gradientUnits="userSpaceOnUse" x1="3.773940e-02" y1="2500.1555" x2="0.8385" y2="2500.1555" gradientTransform="matrix(0 -548.4344 -548.4344 0 1372768.375 1421.3785)">
	<stop  offset="0" style="stop-color:#2196F3"/>
	<stop  offset="1" style="stop-color:#00C0F3"/>
</linearGradient>
<path class="st4" d="M1591.1,986.4c-9.3,9.3-14,20.8-14,34.5c0,13.6,4.7,25.2,14,34.8c9.3,9.6,20.8,14.3,34.5,14.3
	c13.6,0,25.2-4.8,34.8-14.3c9.5-9.5,14.3-21.1,14.3-34.8c0-13.6-4.8-25.1-14.3-34.5c-9.6-9.3-21.1-14-34.8-14
	C1612,972.4,1600.5,977.1,1591.1,986.4z M1593.8,1100c-8.8,8.8-13.1,19.4-13.1,31.8V1414c0,10.9-1.6,19.4-4.7,25.4
	c-3.1,6-6.9,11.1-11.4,15.2c-4.5,4.1-9.3,7.4-14.6,9.9c-5.3,2.5-10.1,5.6-14.6,9.3c-4.5,3.7-8.3,8.4-11.4,14
	c-3.1,5.6-4.7,13.3-4.7,23.1c0,12.5,4.6,21.9,13.7,28.3c9.2,6.4,20.2,9.6,33,9.6c14.4,0,28-2.8,40.9-8.5c12.8-5.6,24-14,33.6-25.1
	c9.5-11.1,17-25.1,22.5-42.1c5.5-16.9,8.2-36.7,8.2-59.3v-282.2c0-6.2-1.2-12.1-3.5-17.5c-2.3-5.5-5.5-10.2-9.6-14.3
	c-4.1-4.1-9-7.3-14.6-9.6c-5.6-2.3-11.6-3.5-17.8-3.5C1613.1,1086.9,1602.5,1091.3,1593.8,1100L1593.8,1100z"/>
<g>
	<defs>
		<path id="SVGID_5_" d="M278.2,980.9c-6.4,3.3-11.7,7.5-15.8,12.6c-4.1,5.1-7.2,10.6-9.3,16.7c-2.1,6-3.2,11.8-3.2,17.2
			c0,5.8,0.8,11.1,2.3,15.8L356.1,1373c16.7-46,34.7-96.1,53.2-148l-60.1-213.5c-3.1-10.9-9.2-19.6-18.1-26
			c-9-6.4-19.1-9.6-30.4-9.6C292.2,975.9,284.7,977.6,278.2,980.9z"/>
	</defs>
	<clipPath id="SVGID_6_">
		<use xlink:href="#SVGID_5_"  style="overflow:visible;"/>
	</clipPath>
	<g class="st5">
		
			<linearGradient id="SVGID_7_" gradientUnits="userSpaceOnUse" x1="0.5038" y1="2500.5098" x2="1.3046" y2="2500.5098" gradientTransform="matrix(164.9495 327.055 327.055 -164.9495 -817634.5 413284.9062)">
			<stop  offset="0" style="stop-color:#3F51B5"/>
			<stop  offset="1" style="stop-color:#313A78"/>
		</linearGradient>
		<path class="st6" d="M324.4,957.5l173.5,344L356.1,1373l-173.5-344C182.6,1029,324.4,957.5,324.4,957.5z"/>
	</g>
</g>
<g>
	<defs>
		<path id="SVGID_8_" d="M504.3,985c-8.4,6-14.7,14.7-19,26l-75.9,214.4l-0.1-0.4c-18.5,51.9-36.5,102-53.2,148l1.9,6
			c3.5,10.9,9.3,19.5,17.5,25.7c8.2,6.2,17.9,9.3,29.2,9.3c11.3,0,21-3,29.2-9.1c8.2-6,14.2-14.5,18.1-25.4l82.4-231.9l81.3,229
			c14-47.1,29.1-99.4,43.3-152.5L583.5,1011c-3.9-11.3-10.1-20-18.7-26c-8.6-6-18.7-9.1-30.4-9.1C522.7,975.9,512.7,978.9,504.3,985
			L504.3,985z"/>
	</defs>
	<clipPath id="SVGID_9_">
		<use xlink:href="#SVGID_8_"  style="overflow:visible;"/>
	</clipPath>
	<g class="st7">
		
			<linearGradient id="SVGID_10_" gradientUnits="userSpaceOnUse" x1="0.8978" y1="2499.6616" x2="1.6985" y2="2499.6616" gradientTransform="matrix(223.7243 -61.6191 -61.6191 -223.7243 154188.4844 560523.5)">
			<stop  offset="0" style="stop-color:#3F51B5"/>
			<stop  offset="1" style="stop-color:#313A78"/>
		</linearGradient>
		<path class="st8" d="M266.2,1046.6l319.6-88L695,1354.8l-319.6,88L266.2,1046.6L266.2,1046.6z"/>
	</g>
</g>
<g>
	<defs>
		<path id="SVGID_11_" d="M737.7,985.6c-9,6.4-15,15.1-18.1,26l-60.2,213.8l-0.4-1.2c-14.2,53.1-29.2,105.4-43.3,152.5l1,2.9
			c3.9,10.9,9.9,19.4,18.1,25.4c8.2,6,17.9,9.1,29.2,9.1c11.3,0,21-3.1,29.2-9.3c8.2-6.2,14-14.8,17.5-25.7l105.7-335.9
			c1.5-4.7,2.3-9.9,2.3-15.8c0-5.5-1.1-11.2-3.2-17.2c-2.2-6-5.3-11.6-9.3-16.7c-4.1-5.1-9.3-9.2-15.8-12.6c-6.4-3.3-13.9-5-22.5-5
			C756.8,975.9,746.6,979.1,737.7,985.6L737.7,985.6z"/>
	</defs>
	<clipPath id="SVGID_12_">
		<use xlink:href="#SVGID_11_"  style="overflow:visible;"/>
	</clipPath>
	<g class="st9">
		
			<linearGradient id="SVGID_13_" gradientUnits="userSpaceOnUse" x1="0.1018" y1="2499.6179" x2="0.9025" y2="2499.6179" gradientTransform="matrix(110.914 -340.3271 -340.3271 -110.914 851361.9375 278563.375)">
			<stop  offset="0" style="stop-color:#3F51B5"/>
			<stop  offset="1" style="stop-color:#313A78"/>
		</linearGradient>
		<path class="st10" d="M594.1,1395.1l141.3-433.4l100.8,32.8l-141.3,433.4L594.1,1395.1L594.1,1395.1z"/>
	</g>
</g>
<g>
	<defs>
		<path id="SVGID_14_" d="M1200.3,1097.4l-121.5,97.6v84.2l110.4,118.5c5.1,5.5,11,9.5,17.8,12.3c6.8,2.7,13.5,4.1,20.2,4.1
			c4.3,0,9-0.8,14-2.3c5.1-1.5,9.7-4.1,14-7.6c4.3-3.5,7.9-8.2,10.8-14c2.9-5.8,4.4-12.9,4.4-21c0-5.8-1.1-11.7-3.2-17.5
			c-2.1-5.8-5.5-10.9-10.2-15.2l-101.7-98.1l102.8-73c5.5-3.9,9.3-8.8,11.7-14.6c2.3-5.8,3.5-11.9,3.5-18.1c0-8.2-1.6-15.2-4.7-21
			c-3.1-5.8-6.9-10.6-11.4-14.3c-4.5-3.7-9.2-6.3-14.3-7.9c-5.1-1.6-9.7-2.3-14-2.3C1218.4,1086.9,1208.9,1090.4,1200.3,1097.4
			L1200.3,1097.4z"/>
	</defs>
	<clipPath id="SVGID_15_">
		<use xlink:href="#SVGID_14_"  style="overflow:visible;"/>
	</clipPath>
	<g class="st11">
		
			<linearGradient id="SVGID_16_" gradientUnits="userSpaceOnUse" x1="-2.828420e-02" y1="2500.0906" x2="0.7725" y2="2500.0906" gradientTransform="matrix(-183.9903 -0.9533 -0.9533 183.9903 3611.7375 -458741.8438)">
			<stop  offset="0" style="stop-color:#3F51B5"/>
			<stop  offset="1" style="stop-color:#313A78"/>
		</linearGradient>
		<path class="st12" d="M1271.9,1414.3l-194.2-1l1.7-327.2l194.2,1L1271.9,1414.3z"/>
	</g>
</g>
<g>
	<g class="st13">
		<g>
			<defs>
				<rect id="SVGID_17_" x="343.6" y="1225.4" width="65.7" height="147.6"/>
			</defs>
			<clipPath id="SVGID_18_">
				<use xlink:href="#SVGID_17_"  style="overflow:visible;"/>
			</clipPath>
			<g class="st14">
				<path d="M409.4,1225.4L356.1,1373l-12.4-39.5L409.4,1225.4z"/>
			</g>
		</g>
	</g>
</g>
<g>
	<g class="st13">
		<g>
			<defs>
				<rect id="SVGID_19_" x="601.7" y="1225.4" width="57.7" height="151.3"/>
			</defs>
			<clipPath id="SVGID_20_">
				<use xlink:href="#SVGID_19_"  style="overflow:visible;"/>
			</clipPath>
			<g class="st15">
				<path d="M659.4,1225.4l-43.7,151.3l-14-39.5L659.4,1225.4L659.4,1225.4z"/>
			</g>
		</g>
	</g>
</g>
<g>
	<g class="st13">
		<g>
			<defs>
				<rect id="SVGID_21_" x="1078.8" y="1194.4" width="28.5" height="115.3"/>
			</defs>
			<clipPath id="SVGID_22_">
				<use xlink:href="#SVGID_21_"  style="overflow:visible;"/>
			</clipPath>
			<g class="st16">
				<path d="M1079.4,1194.4l27.9,115.3l-28.5-30.6L1079.4,1194.4z"/>
			</g>
		</g>
	</g>
</g>
<g>
	<defs>
		<path id="SVGID_23_" d="M1002,989c-8.8,8.8-13.1,19.4-13.1,31.8v347.6c0,6.2,1.2,12.2,3.5,17.8c2.3,5.7,5.5,10.5,9.6,14.6
			c4.1,4.1,8.9,7.3,14.3,9.6c5.4,2.3,11.3,3.5,17.5,3.5c12.5,0,23.2-4.5,32.1-13.4c9-9,13.4-19.7,13.4-32.1v-88.8v-85.3v-173.5
			c0-6.2-1.2-12.1-3.5-17.5c-2.3-5.4-5.5-10.2-9.6-14.3s-9-7.3-14.6-9.6c-5.7-2.3-11.6-3.5-17.8-3.5
			C1021.4,975.9,1010.8,980.3,1002,989z"/>
	</defs>
	<clipPath id="SVGID_24_">
		<use xlink:href="#SVGID_23_"  style="overflow:visible;"/>
	</clipPath>
	<g class="st17">
		
			<linearGradient id="SVGID_25_" gradientUnits="userSpaceOnUse" x1="4.799912e-02" y1="2499.8872" x2="0.8487" y2="2499.8872" gradientTransform="matrix(68.255 -512.86 -512.86 -68.255 1283097.625 172039.875)">
			<stop  offset="0" style="stop-color:#3F51B5"/>
			<stop  offset="1" style="stop-color:#313A78"/>
		</linearGradient>
		<path class="st18" d="M936.5,1401.9L994,969.8l137.7,18.3l-57.5,432.1L936.5,1401.9z"/>
	</g>
</g>
<g>
	<defs>
		<path id="SVGID_26_" d="M1724,1295.7c-8,7.6-12,19.2-12,34.8c0,12.9,4.6,24.5,13.7,35c9.1,10.5,20.5,19.7,34.2,27.5
			c13.6,7.8,28.2,13.8,43.8,18.1c15.6,4.3,29.8,6.4,42.6,6.4c17.9,0,34.8-2.3,50.5-7c15.8-4.7,29.7-11.6,41.8-20.7
			c4.5-3.4,8.6-7.3,12.4-11.4c-6-33.3-30.4-65.4-88.7-88.6c3.8,1.7,7.4,3.5,10.6,5.3c7.6,4.5,11.4,10.4,11.4,17.8
			c0,7.8-3.7,13.3-11.1,16.6c-7.4,3.3-15,5-22.8,5c-9,0-17.2-2.6-24.8-7.9c-7.6-5.3-15-11-22.2-17.2c-7.2-6.2-14.7-12-22.5-17.2
			c-7.8-5.3-16-7.9-24.5-7.9C1742.8,1284.4,1732,1288.2,1724,1295.7L1724,1295.7z"/>
	</defs>
	<clipPath id="SVGID_27_">
		<use xlink:href="#SVGID_26_"  style="overflow:visible;"/>
	</clipPath>
	<g class="st19">
		
			<linearGradient id="SVGID_28_" gradientUnits="userSpaceOnUse" x1="1.0093" y1="2499.4038" x2="1.8101" y2="2499.4038" gradientTransform="matrix(-117.5505 75.8388 75.8388 117.5505 -187521.3906 -292592.4688)">
			<stop  offset="0" style="stop-color:#2196F3"/>
			<stop  offset="1" style="stop-color:#00C0F3"/>
		</linearGradient>
		<path class="st20" d="M1964.2,1374.7l-165.8,107l-107.7-166.9l165.8-107L1964.2,1374.7L1964.2,1374.7z"/>
	</g>
</g>
<g>
	<g class="st13">
		<g>
			<defs>
				<rect id="SVGID_29_" x="1862.4" y="1289.8" width="88.7" height="98.6"/>
			</defs>
			<clipPath id="SVGID_30_">
				<use xlink:href="#SVGID_29_"  style="overflow:visible;"/>
			</clipPath>
			<g class="st21">
				<path d="M1951.1,1378.4c-6-33.3-30.4-65.4-88.7-88.6c3.8,1.7,7.4,3.5,10.6,5.3c1.8,1,3.3,2.2,4.7,3.4c0,0,0,0,0,0c0,0,0,0,0,0
					c0.2,0.2,0.3,0.3,0.5,0.5c35.5,31.4,54.6,61.4,62.2,89.3C1944.2,1385.3,1947.8,1382,1951.1,1378.4"/>
			</g>
		</g>
	</g>
</g>
<g>
	<defs>
		<path id="SVGID_31_" d="M1791.5,1091c-13.6,5.1-25,12.1-34.2,21c-9.2,9-15.9,19.5-20.2,31.5c-4.3,12.1-6.4,25.3-6.4,39.7
			c0,18.3,3.8,33.1,11.4,44.4c7.6,11.3,17,20.5,28.3,27.7c11.3,7.2,23.7,12.8,37.1,16.7c13.4,3.9,25.8,7.6,37.1,11.1
			c6.6,2,12.4,4.3,17.8,6.6c58.2,23.2,82.7,55.3,88.7,88.6c6.4-6.8,11.9-14.4,16.3-23.1c7-13.8,10.5-30.1,10.5-48.8
			c0-19.5-3.8-35.1-11.4-47c-7.6-11.9-17-21.3-28.3-28.3c-11.3-7-23.6-12.4-36.8-16.1c-13.2-3.7-25.5-7.2-36.8-10.5
			c-11.3-3.3-20.7-7.2-28.3-11.7c-7.6-4.5-11.4-11.2-11.4-20.2c0-4.3,1.5-7.6,4.4-9.9c2.9-2.3,6.5-3.5,10.8-3.5
			c7.4,0,13.7,1.5,19,4.4c5.3,2.9,10.6,6,16.1,9.3c5.4,3.3,11.4,6.4,17.8,9.3c6.4,2.9,14.3,4.4,23.7,4.4c10.9,0,20.2-3.9,27.7-11.7
			c7.3-7.5,11.1-16.4,11.3-26.4h-47.1c-10,0-18.2-8.2-18.2-18.2v-41.3c-1.1-0.3-2.1-0.6-3.2-0.8c-14.2-3.3-29.9-5-47-5
			C1821.3,1083.4,1805.1,1085.9,1791.5,1091L1791.5,1091z"/>
	</defs>
	<clipPath id="SVGID_32_">
		<use xlink:href="#SVGID_31_"  style="overflow:visible;"/>
	</clipPath>
	<g class="st22">
		
			<linearGradient id="SVGID_33_" gradientUnits="userSpaceOnUse" x1="0.3447" y1="2499.489" x2="1.1454" y2="2499.489" gradientTransform="matrix(-62.567 269.2278 269.2278 62.567 -671016.125 -155405.1875)">
			<stop  offset="0" style="stop-color:#2196F3"/>
			<stop  offset="1" style="stop-color:#00C0F3"/>
		</linearGradient>
		<path class="st23" d="M2025.7,1120.6l-60.7,261.1l-270.1-62.8l60.7-261.1L2025.7,1120.6z"/>
	</g>
</g>
<path class="st24" d="M1991.3,1095.6c0,8.8,7.2,16,16,16h48.2c8.8,0,16-7.2,16-16v-48.2c0-8.8-7.2-16-16-16h-48.2
	c-8.8,0-16,7.2-16,16V1095.6z"/>
<path class="st24" d="M2123.3,1112.4c0,8.8,7.2,16,16,16h24.9c8.8,0,16-7.2,16-16v-24.9c0-8.8-7.2-16-16-16h-24.9
	c-8.8,0-16,7.2-16,16V1112.4z"/>
<path class="st24" d="M2071.5,1240.6c0,8.8,7.2,16,16,16h35.3c8.8,0,16-7.2,16-16v-35.3c0-8.8-7.2-16-16-16h-35.3
	c-8.8,0-16,7.2-16,16V1240.6L2071.5,1240.6z"/>
<path class="st24" d="M2211.3,1174.6c0,8.8,7.2,16,16,16h6.8c8.8,0,16-7.2,16-16v-6.8c0-8.8-7.2-16-16-16h-6.8c-8.8,0-16,7.2-16,16
	V1174.6z"/>
</svg>
